<?xml version="1.0" standalone="no"?>
<!DOCTYPE svg PUBLIC "-//W3C//DTD SVG 20010904//EN"
 "http://www.w3.org/TR/2001/REC-SVG-20010904/DTD/svg10.dtd">
<svg version="1.0" xmlns="http://www.w3.org/2000/svg"
 width="2609.000000pt" height="2609.000000pt" viewBox="0 0 2609.000000 2609.000000"
 preserveAspectRatio="xMidYMid meet">

<g transform="translate(0.000000,2609.000000) scale(0.100000,-0.100000)"
fill="#000000" stroke="none">
<path d="M6605 23680 c-3 -5 -16 -10 -28 -10 -28 0 -92 -52 -115 -93 -16 -29
-17 -82 -17 -637 0 -587 1 -606 20 -635 25 -37 33 -46 65 -66 58 -35 101 -39
475 -42 286 -2 377 -5 400 -16 17 -7 39 -17 50 -21 177 -65 316 -188 395 -349
17 -36 36 -73 40 -82 5 -9 12 -34 16 -55 3 -22 12 -45 18 -53 8 -10 12 -195
14 -629 l4 -616 -24 -18 c-13 -9 -29 -18 -36 -18 -8 0 -30 -7 -50 -16 -55 -24
-70 -30 -157 -65 -44 -17 -84 -36 -89 -40 -6 -5 -16 -9 -24 -9 -8 0 -44 -14
-81 -31 -36 -17 -75 -34 -86 -39 -40 -18 -262 -122 -315 -148 -30 -15 -56 -30
-58 -34 -2 -5 -9 -8 -15 -8 -7 0 -23 -6 -37 -14 -14 -7 -59 -31 -100 -53 -41
-22 -107 -59 -147 -82 -40 -22 -77 -41 -83 -41 -5 0 -10 -4 -10 -10 0 -5 -5
-10 -10 -10 -33 0 -652 -407 -688 -453 -17 -21 -22 -62 -12 -98 11 -39 30 -52
215 -144 66 -33 122 -63 123 -67 2 -5 8 -8 13 -8 6 0 31 -10 57 -21 26 -12 76
-35 112 -51 36 -16 79 -36 95 -43 17 -7 61 -27 98 -44 38 -17 73 -31 78 -31 5
0 17 -4 27 -10 20 -11 72 -32 122 -50 19 -7 49 -18 65 -25 17 -7 50 -20 75
-30 25 -9 52 -21 60 -25 9 -4 31 -11 50 -15 19 -4 40 -10 45 -14 6 -4 35 -15
65 -25 30 -10 64 -21 75 -26 11 -4 45 -16 75 -24 30 -9 64 -21 75 -25 22 -10
140 -47 255 -81 41 -12 86 -25 100 -30 14 -4 45 -14 70 -21 72 -20 71 -19 68
-148 l-3 -116 -25 2 c-32 3 -140 32 -162 44 -10 5 -24 9 -32 9 -16 0 -114 28
-136 40 -9 4 -31 11 -50 14 -34 7 -48 12 -100 34 -14 6 -41 14 -60 18 -19 3
-39 10 -45 14 -5 4 -28 12 -50 18 -53 13 -155 50 -177 62 -10 6 -24 10 -33 10
-13 0 -65 20 -107 41 -10 5 -23 9 -29 9 -6 0 -25 6 -42 14 -18 8 -54 22 -82
32 -27 9 -54 21 -59 26 -6 4 -16 8 -23 8 -7 0 -36 11 -65 25 -28 14 -56 25
-61 25 -5 0 -39 14 -76 31 -36 17 -75 34 -86 39 -38 17 -160 72 -211 96 -28
13 -56 24 -62 24 -6 0 -12 3 -14 8 -4 9 -131 72 -146 72 -6 0 -12 3 -14 8 -1
4 -21 16 -43 27 -22 11 -78 41 -124 67 -46 27 -85 48 -87 48 -2 0 -26 14 -54
31 l-50 31 -48 -38 c-65 -53 -364 -352 -443 -444 -214 -248 -380 -492 -508
-745 -70 -138 -111 -226 -111 -239 0 -4 -6 -22 -14 -39 -8 -18 -22 -54 -31
-82 -9 -27 -21 -59 -25 -70 -8 -19 -26 -76 -49 -160 -10 -36 -21 -84 -51 -225
-47 -217 -47 -790 0 -970 5 -19 16 -71 25 -115 20 -95 22 -102 75 -270 23 -71
46 -134 51 -139 5 -6 9 -16 9 -24 0 -33 147 -331 233 -472 62 -102 163 -257
177 -270 3 -3 25 -32 50 -65 87 -117 121 -156 275 -325 106 -116 359 -356 415
-393 30 -21 93 -22 123 -3 51 34 367 195 522 266 51 24 218 97 270 120 93 39
129 53 185 75 25 9 53 21 62 26 10 5 23 9 29 9 11 0 67 22 101 41 10 5 23 9
30 9 7 0 25 6 40 14 15 8 42 17 60 21 18 4 38 11 43 15 6 3 91 33 190 64 99
32 189 62 200 66 11 4 47 16 80 25 33 10 94 28 135 40 168 51 190 56 200 50 6
-4 10 -52 10 -119 0 -130 -1 -132 -83 -151 -78 -20 -200 -56 -218 -65 -9 -5
-34 -12 -55 -16 -22 -3 -43 -10 -49 -14 -5 -4 -37 -15 -70 -24 -33 -10 -69
-21 -80 -26 -11 -5 -63 -23 -115 -40 -135 -44 -308 -108 -397 -146 -17 -8 -35
-14 -40 -14 -5 0 -33 -11 -61 -25 -29 -14 -56 -25 -60 -25 -5 0 -32 -11 -60
-25 -29 -14 -59 -25 -67 -25 -8 0 -15 -4 -15 -10 0 -5 -7 -10 -15 -10 -16 0
-124 -50 -363 -167 -161 -80 -186 -100 -186 -157 0 -43 27 -76 99 -125 33 -22
87 -59 120 -82 66 -45 331 -211 355 -222 8 -4 29 -15 45 -25 17 -10 55 -33 85
-49 30 -17 82 -46 115 -65 33 -19 148 -77 255 -130 240 -118 324 -158 445
-208 11 -5 43 -18 70 -30 83 -35 89 -37 125 -53 19 -8 69 -27 110 -42 41 -15
89 -33 105 -40 17 -7 46 -18 65 -25 19 -7 49 -19 67 -26 17 -8 36 -14 42 -14
6 0 19 -4 29 -9 32 -18 57 -25 91 -26 40 -2 52 -21 132 -214 18 -44 137 -281
174 -346 66 -118 234 -377 248 -383 4 -2 7 -8 7 -14 0 -6 12 -25 28 -43 15
-18 50 -64 77 -101 93 -126 216 -268 345 -399 208 -211 280 -278 420 -390 41
-33 77 -63 80 -66 12 -14 231 -169 295 -209 39 -24 72 -47 75 -51 3 -4 23 -17
45 -28 45 -25 69 -39 105 -62 53 -35 324 -175 410 -212 19 -9 66 -29 103 -46
38 -17 74 -31 81 -31 6 0 16 -4 22 -9 5 -4 34 -17 64 -27 30 -10 60 -21 65
-24 6 -4 57 -21 115 -39 58 -18 113 -37 122 -42 9 -5 35 -12 58 -15 22 -4 43
-11 46 -15 3 -5 18 -9 33 -9 15 0 31 -3 35 -8 7 -6 80 -24 161 -38 17 -3 37
-8 45 -11 8 -3 24 -7 35 -9 11 -2 45 -8 75 -14 275 -54 563 -79 925 -78 399 0
681 29 995 102 36 8 88 20 115 26 28 6 59 15 70 19 33 14 126 41 141 41 8 0
22 4 32 9 9 5 60 24 112 41 52 18 114 40 137 51 24 10 45 19 48 19 6 0 48 18
145 62 494 224 901 506 1275 883 66 66 152 157 190 202 74 85 79 91 135 163
19 25 38 50 43 55 70 90 247 348 247 361 0 2 13 25 29 51 88 144 217 403 272
548 11 28 24 60 29 73 22 49 29 69 40 105 6 20 18 37 26 37 8 0 22 4 32 9 9 5
44 17 77 27 33 10 65 21 70 25 6 4 26 10 45 14 19 4 40 10 45 14 6 4 35 15 65
25 59 19 74 25 132 50 20 9 41 16 47 16 6 0 19 4 29 9 9 5 37 17 62 26 25 10
59 24 77 31 17 8 35 14 40 14 5 0 33 11 61 25 29 14 56 25 60 25 5 0 26 8 48
19 21 10 62 28 89 41 164 72 247 110 425 200 179 89 263 133 270 140 3 3 23
14 45 25 22 11 79 43 126 72 47 29 91 53 97 53 7 0 12 5 12 10 0 6 5 10 11 10
6 0 38 18 71 40 33 22 62 40 65 40 2 0 9 5 16 10 7 6 55 39 107 73 127 83 156
104 218 155 67 56 69 81 10 119 -36 22 -332 168 -473 233 -116 54 -177 80
-186 80 -5 0 -17 4 -27 10 -9 5 -35 17 -57 26 -22 9 -53 22 -70 29 -16 7 -93
36 -170 65 -77 28 -147 55 -155 59 -9 5 -31 12 -50 16 -19 4 -39 10 -45 14 -5
4 -35 15 -65 25 -30 10 -64 21 -75 26 -11 5 -67 23 -125 40 -58 18 -139 43
-180 56 -41 13 -82 24 -91 24 -8 0 -19 3 -23 7 -4 5 -29 13 -54 20 -26 6 -63
16 -82 22 -69 20 -330 89 -405 107 -33 7 -78 19 -100 25 -22 6 -69 17 -105 24
-36 7 -96 21 -135 30 -139 32 -161 37 -235 51 -41 8 -93 19 -115 23 -211 44
-285 45 -285 2 0 -11 -4 -30 -9 -43 -5 -13 -24 -70 -41 -128 -17 -58 -34 -112
-39 -120 -5 -9 -12 -31 -16 -50 -4 -19 -11 -41 -16 -50 -4 -8 -24 -58 -42
-110 -84 -231 -249 -588 -331 -719 -14 -22 -26 -43 -26 -45 0 -14 -234 -382
-251 -396 -3 -3 -17 -21 -30 -41 -123 -186 -491 -585 -679 -735 -174 -139
-360 -266 -476 -325 -12 -6 -28 -22 -35 -36 -11 -21 -11 -29 2 -51 14 -26 18
-27 94 -26 71 1 222 14 340 30 22 3 67 9 100 13 33 5 107 14 165 20 58 7 121
16 140 21 19 5 87 16 150 25 63 9 126 18 140 21 14 3 63 12 110 20 47 8 99 17
116 20 18 3 34 2 38 -4 9 -16 -106 -158 -232 -285 -180 -182 -381 -328 -597
-431 -103 -49 -109 -52 -185 -81 -25 -10 -54 -21 -65 -25 -11 -5 -40 -13 -65
-20 -25 -6 -61 -16 -80 -22 -82 -24 -249 -55 -355 -65 -91 -9 -469 -9 -560 0
-105 10 -272 41 -355 65 -19 6 -58 17 -86 25 -64 18 -270 101 -330 133 -253
134 -377 225 -570 418 -157 158 -294 331 -294 373 0 14 8 12 105 -31 59 -27
70 -31 130 -56 16 -6 68 -24 115 -39 188 -61 285 -83 453 -102 76 -9 92 -8
113 6 57 37 54 -44 54 1583 0 1375 -1 1498 -17 1533 -26 60 -40 62 -320 54
-322 -8 -652 -22 -833 -34 -111 -8 -146 -8 -152 2 -9 14 -11 162 -2 204 6 30
8 31 82 37 115 11 261 19 417 23 77 2 193 8 257 13 64 6 201 10 305 10 207 0
218 3 247 62 14 28 16 140 16 998 0 1048 2 1017 -53 1053 -21 13 -68 17 -268
21 -348 7 -640 21 -936 43 -72 5 -73 7 -73 128 0 126 1 127 74 120 363 -34
1188 -57 1216 -32 41 35 40 -11 40 1683 0 1461 -2 1626 -15 1620 -9 -3 -69
-10 -133 -16 -64 -6 -133 -15 -152 -20 -19 -4 -71 -16 -115 -25 -44 -10 -89
-21 -100 -25 -11 -4 -47 -16 -80 -25 -33 -10 -74 -24 -92 -32 -17 -7 -36 -13
-42 -13 -6 0 -19 -4 -29 -9 -9 -5 -32 -16 -51 -23 -71 -27 -300 -147 -395
-207 -54 -34 -105 -60 -113 -57 -21 8 -13 937 8 1008 8 26 18 50 22 54 4 4 7
15 7 23 0 40 101 201 169 271 49 50 129 107 193 138 142 68 118 65 543 72 261
4 401 10 424 18 47 16 89 58 112 110 18 41 19 77 19 617 0 541 -1 576 -19 618
-20 46 -84 107 -113 107 -9 0 -20 5 -23 10 -4 7 -998 10 -2950 10 -1952 0
-2946 -3 -2950 -10z m5660 -720 l0 -325 -780 -6 c-555 -4 -794 -9 -830 -18
-27 -6 -70 -17 -95 -22 -173 -41 -381 -139 -521 -244 -107 -80 -270 -248 -333
-344 -63 -96 -156 -279 -156 -308 0 -33 -28 -8 -50 45 -183 444 -563 757
-1050 863 -103 23 -121 23 -860 29 l-755 5 -3 315 c-1 173 0 320 3 327 3 11
542 13 2717 11 l2713 -3 0 -325z m-3980 -490 c257 -30 438 -99 640 -245 244
-177 397 -402 494 -725 l25 -85 6 -3950 c5 -2816 10 -3986 18 -4075 11 -118
29 -257 51 -380 27 -155 120 -478 171 -595 5 -11 23 -56 41 -100 69 -170 202
-413 323 -590 553 -806 1413 -1337 2381 -1470 248 -34 742 -34 990 0 75 10
220 35 260 45 22 5 72 17 110 25 39 9 81 20 95 25 14 5 72 23 130 40 244 75
536 211 780 364 559 351 1015 873 1288 1476 27 59 34 66 71 78 49 15 71 15 71
2 0 -17 -131 -276 -195 -385 -236 -406 -582 -799 -960 -1090 -177 -136 -318
-229 -520 -342 -93 -53 -301 -150 -410 -193 -44 -18 -89 -36 -100 -40 -82 -35
-343 -113 -495 -147 -298 -67 -509 -88 -895 -88 -335 0 -594 19 -770 55 -27 6
-95 20 -150 31 -153 31 -176 37 -235 53 -107 29 -136 38 -250 76 -106 35 -139
47 -195 71 -11 5 -42 17 -70 28 -180 69 -428 197 -640 330 -805 505 -1405
1235 -1741 2116 -29 77 -56 154 -60 170 -4 17 -10 35 -14 40 -4 6 -10 21 -13
35 -3 14 -13 50 -22 80 -23 80 -49 183 -69 275 -9 44 -21 98 -26 120 -5 22
-16 90 -24 150 -9 61 -21 144 -28 185 -9 59 -14 919 -18 3925 -5 2783 -10
3865 -18 3905 -10 50 -23 97 -51 190 -15 49 -80 175 -123 240 -85 127 -228
265 -339 327 -86 49 -73 53 174 53 122 0 263 -5 312 -10z m3059 2 c3 -5 -28
-30 -69 -56 -94 -60 -223 -180 -290 -271 -73 -99 -144 -240 -174 -345 -8 -25
-18 -58 -23 -75 -6 -16 -14 -163 -18 -325 -12 -419 -12 -7954 0 -8177 9 -179
14 -222 50 -393 126 -597 449 -1117 932 -1500 323 -256 704 -431 1113 -510 33
-6 78 -16 100 -21 22 -5 135 -14 252 -21 221 -12 556 -1 674 23 30 5 88 17
129 25 324 64 652 203 935 395 348 236 639 566 847 959 19 36 31 47 61 54 20
5 40 6 44 2 15 -15 -142 -296 -256 -456 -214 -304 -465 -561 -753 -773 -170
-125 -456 -287 -638 -362 -36 -15 -78 -33 -95 -40 -16 -7 -52 -20 -80 -30 -27
-9 -59 -20 -70 -25 -35 -15 -187 -58 -275 -79 -178 -41 -277 -58 -405 -73
-145 -17 -665 -17 -810 0 -650 75 -1281 352 -1775 780 -243 211 -494 504 -647
757 -106 175 -174 308 -242 475 -24 58 -47 114 -51 125 -36 88 -78 233 -130
450 -13 53 -29 151 -41 250 -5 44 -13 91 -17 105 -3 14 -8 1809 -9 3990 -3
3876 -3 3968 16 4070 34 185 76 299 168 453 148 246 378 436 653 540 178 67
309 85 637 86 138 1 254 -3 257 -7z"/>
<path d="M14330 23680 c0 -5 -9 -10 -20 -10 -25 0 -67 -26 -97 -60 -42 -46
-45 -94 -41 -701 l3 -575 26 -40 c14 -22 44 -48 65 -58 21 -10 47 -23 56 -27
10 -5 183 -9 386 -9 417 0 454 -5 585 -76 15 -9 38 -21 50 -27 33 -17 118 -87
147 -121 14 -16 37 -43 52 -60 15 -17 28 -37 28 -43 0 -7 4 -13 8 -13 10 0 72
-132 72 -154 0 -8 4 -17 8 -20 7 -4 22 -77 33 -156 1 -8 4 -160 6 -338 4 -334
0 -371 -35 -357 -9 4 -28 8 -42 10 -14 2 -47 9 -75 15 -27 6 -86 18 -130 26
-44 9 -100 20 -125 25 -25 5 -83 17 -130 25 -170 30 -186 32 -225 39 -78 12
-277 41 -450 65 -65 9 -270 33 -408 47 -68 7 -100 -6 -117 -48 -19 -44 9 -95
65 -120 19 -8 45 -24 69 -41 6 -5 54 -38 106 -75 171 -121 291 -224 465 -398
214 -215 354 -389 538 -668 86 -129 120 -186 173 -287 11 -19 22 -37 25 -40 6
-5 156 -309 182 -370 8 -19 27 -62 42 -95 30 -69 36 -84 60 -145 10 -25 23
-58 30 -75 18 -42 78 -221 115 -345 17 -58 35 -116 40 -130 4 -14 13 -45 20
-70 29 -109 44 -119 152 -102 80 13 211 38 273 52 22 5 72 16 110 24 165 35
180 38 250 56 22 5 69 16 105 24 36 8 110 27 165 41 55 15 120 31 145 36 25 6
53 14 62 19 10 6 29 10 42 10 14 0 27 4 30 9 3 5 27 12 52 16 26 4 54 10 63
15 22 11 120 40 137 40 8 0 22 4 32 9 9 5 64 24 122 41 58 18 114 36 125 40
11 5 45 17 75 26 30 8 64 19 75 24 11 4 43 15 70 25 28 9 59 20 70 25 11 4
101 38 200 75 99 37 208 80 243 96 35 16 67 29 71 29 4 0 25 8 47 19 21 10 57
26 79 36 131 57 424 201 535 263 97 53 104 114 20 179 -27 21 -65 49 -85 63
-20 14 -42 30 -48 35 -36 31 -430 285 -442 285 -3 0 -28 15 -57 34 -29 18 -80
48 -113 66 -33 18 -76 42 -95 53 -76 44 -465 237 -477 237 -7 0 -13 5 -13 10
0 6 -6 10 -12 10 -7 0 -35 11 -63 24 -66 33 -164 76 -171 76 -3 0 -35 14 -71
30 -35 17 -69 30 -74 30 -5 0 -17 4 -27 10 -9 5 -35 17 -57 26 -22 9 -54 23
-72 30 -17 8 -38 14 -46 14 -9 0 -19 5 -22 10 -3 6 -13 10 -22 10 -8 0 -31 7
-51 16 -52 22 -70 30 -127 49 -27 9 -59 20 -70 25 -11 5 -30 12 -43 15 l-23 7
3 587 c2 412 6 592 14 602 6 8 14 27 18 42 9 38 61 143 92 187 31 44 129 145
169 175 45 34 122 75 195 103 65 26 67 26 460 32 217 4 407 10 421 14 49 14
97 63 118 122 20 53 21 73 21 607 0 412 -3 561 -13 587 -22 63 -53 105 -93
124 -21 10 -47 22 -56 27 -25 13 -3978 12 -3978 -1z m3740 -719 l0 -329 -427
-5 c-423 -4 -429 -4 -523 -30 -215 -58 -368 -145 -516 -292 -101 -100 -168
-191 -225 -305 -16 -33 -33 -60 -37 -60 -5 0 -19 24 -32 53 -65 147 -219 330
-362 431 -78 55 -197 115 -284 145 -155 52 -183 54 -654 60 l-445 6 -3 315
c-1 173 0 320 3 327 3 10 357 13 1755 13 l1750 0 0 -329z m-2455 -541 c3 -5
13 -10 22 -10 8 0 51 -18 95 -40 195 -99 355 -263 445 -458 85 -184 93 -247
93 -776 l0 -438 -37 5 c-21 3 -63 12 -93 19 l-55 14 -6 470 c-4 333 -9 481
-18 509 -7 22 -19 63 -28 90 -68 225 -215 433 -408 575 -30 22 -55 43 -55 45
0 9 39 5 45 -5z m1395 -48 c-149 -112 -285 -289 -358 -462 -81 -194 -89 -266
-91 -829 0 -255 -3 -466 -5 -469 -3 -2 -33 4 -68 15 l-63 19 -3 469 c-3 475 0
542 35 660 15 50 17 58 49 130 63 140 211 317 341 404 69 46 185 103 193 94 3
-3 -11 -17 -30 -31z"/>
<path d="M12720 21083 c0 -4 0 -741 0 -1637 0 -1462 2 -1632 16 -1654 l15 -23
317 4 c275 4 428 10 792 32 41 3 120 7 175 10 55 3 111 8 125 10 14 3 108 12
210 21 102 8 217 19 255 24 39 4 124 13 190 19 66 7 140 16 165 21 25 5 74 12
110 15 36 4 77 9 92 11 48 7 237 35 403 59 84 12 86 13 80 43 -13 59 -54 209
-65 237 -5 11 -12 36 -16 55 -3 19 -10 41 -14 50 -5 8 -16 42 -26 75 -10 33
-22 64 -26 70 -4 5 -8 15 -8 22 0 11 -92 254 -120 318 -110 251 -209 439 -342
653 -168 272 -339 491 -545 699 -215 217 -370 343 -594 484 -74 46 -348 189
-363 189 -4 0 -25 9 -49 19 -23 11 -87 34 -142 51 -55 18 -107 35 -115 38 -8
3 -42 12 -75 19 -33 8 -80 18 -105 24 -25 6 -102 16 -172 24 -69 7 -136 16
-147 20 -12 3 -21 3 -21 -2z"/>
<path d="M19440 18968 c-251 -139 -525 -275 -680 -338 -30 -12 -80 -33 -110
-47 -30 -14 -64 -28 -75 -33 -74 -30 -102 -42 -117 -50 -10 -6 -23 -10 -29
-10 -10 0 -23 -5 -111 -44 -20 -9 -42 -16 -50 -16 -8 0 -18 -4 -23 -8 -6 -4
-37 -16 -70 -27 -33 -10 -64 -22 -70 -26 -5 -4 -26 -10 -45 -14 -34 -7 -44
-11 -85 -32 -12 -6 -36 -14 -55 -18 -19 -4 -41 -11 -50 -16 -8 -5 -62 -22
-120 -40 -58 -17 -138 -42 -178 -55 -40 -13 -81 -24 -92 -24 -10 0 -22 -4 -25
-10 -3 -5 -14 -10 -24 -10 -19 0 -109 -25 -146 -41 -11 -4 -40 -12 -65 -18
-25 -5 -90 -21 -145 -36 -55 -15 -127 -33 -160 -41 -33 -8 -78 -20 -100 -25
-22 -6 -65 -15 -95 -20 -30 -6 -64 -14 -75 -19 -11 -5 -33 -11 -50 -14 -16 -4
-61 -13 -100 -21 -74 -15 -203 -42 -270 -55 -165 -33 -172 -36 -201 -84 -21
-36 -24 -130 -5 -199 6 -23 16 -80 22 -127 5 -47 14 -119 19 -161 13 -108 21
-191 26 -284 2 -44 9 -121 14 -172 13 -118 13 -518 0 -636 -5 -51 -12 -130
-14 -177 -7 -142 -18 -238 -52 -475 -8 -60 -18 -130 -21 -155 -3 -25 -9 -49
-13 -55 -4 -5 -11 -39 -15 -75 -5 -49 -3 -75 9 -105 16 -40 60 -75 95 -75 10
0 21 -3 25 -7 4 -5 40 -13 79 -20 40 -7 92 -16 117 -22 25 -5 61 -12 80 -16
58 -11 241 -51 305 -67 22 -5 65 -15 95 -22 30 -7 62 -15 70 -18 8 -4 26 -9
40 -11 14 -3 36 -8 50 -12 14 -3 41 -9 60 -12 19 -3 40 -9 45 -13 6 -4 28 -10
50 -14 22 -4 51 -11 65 -15 24 -9 109 -33 180 -51 19 -5 71 -20 115 -33 44
-14 107 -32 140 -42 33 -9 67 -20 75 -25 9 -4 31 -11 50 -15 19 -4 41 -11 50
-15 8 -4 42 -16 75 -26 33 -10 65 -21 70 -25 6 -4 26 -10 45 -14 19 -4 41 -11
50 -15 8 -5 38 -16 65 -25 28 -9 59 -20 70 -25 11 -4 43 -16 70 -25 28 -9 64
-23 80 -29 17 -7 46 -19 65 -26 50 -18 102 -39 122 -50 10 -6 22 -10 27 -10 5
0 40 -14 78 -31 66 -29 88 -39 136 -58 111 -45 399 -184 552 -266 176 -94 180
-96 232 -73 98 43 546 497 698 708 22 30 42 57 45 60 3 3 13 16 22 30 10 14
32 45 49 70 128 180 274 451 349 646 23 60 45 116 50 124 4 9 11 31 15 50 4
19 11 41 15 50 12 23 40 125 40 144 0 9 4 24 9 34 6 9 15 46 22 82 6 36 15 88
20 115 20 110 28 230 27 450 0 292 -15 438 -68 645 -28 111 -43 167 -50 185
-5 11 -21 56 -35 100 -61 180 -189 444 -305 630 -69 111 -224 320 -328 443
-122 146 -426 449 -474 473 -55 28 -94 23 -178 -23z"/>
<path d="M15546 17743 c-4 -4 -30 -10 -59 -14 -29 -4 -106 -15 -172 -24 -157
-22 -249 -34 -310 -41 -27 -3 -84 -10 -125 -15 -41 -5 -140 -16 -220 -23 -189
-19 -333 -34 -395 -41 -27 -3 -122 -10 -210 -16 -550 -33 -573 -34 -1010 -44
-141 -3 -259 -10 -271 -16 -11 -6 -28 -23 -37 -39 -16 -26 -17 -111 -17 -1013
0 -604 4 -995 10 -1011 18 -49 52 -56 255 -56 103 0 239 -4 303 -10 64 -5 182
-12 262 -14 163 -5 287 -11 470 -25 69 -6 190 -15 270 -20 80 -5 181 -15 225
-20 65 -9 145 -19 210 -26 6 -1 53 -5 105 -9 52 -4 115 -11 140 -16 25 -5 90
-15 145 -21 128 -15 194 -24 330 -44 182 -28 216 -28 244 -5 30 25 39 61 75
280 9 52 18 106 20 120 3 14 12 88 21 165 9 77 21 176 28 220 7 53 11 239 11
545 0 306 -4 492 -11 545 -7 44 -19 143 -28 220 -9 77 -18 151 -20 165 -5 31
-31 181 -41 233 -10 57 -42 77 -124 77 -37 0 -70 -3 -74 -7z"/>
<path d="M12771 15128 c-24 -13 -35 -27 -45 -62 -11 -35 -7 -3021 5 -3053 6
-18 24 -38 42 -47 28 -15 43 -16 117 -7 137 16 272 45 400 86 47 15 99 31 115
36 17 5 40 13 53 19 12 5 32 14 45 19 168 71 234 105 387 197 86 52 296 199
325 227 6 7 32 28 56 47 80 63 300 283 403 405 173 203 374 487 453 642 30 57
47 87 54 93 7 6 169 335 169 343 0 3 18 45 40 92 22 47 40 90 40 94 0 5 7 22
15 37 8 16 15 37 15 46 0 9 4 19 9 22 5 3 11 16 14 28 3 13 24 77 47 143 41
115 62 182 80 253 9 37 -3 94 -24 111 -15 12 -78 27 -176 41 -36 5 -83 12
-105 15 -54 8 -154 21 -310 41 -71 8 -161 20 -200 25 -38 4 -124 13 -190 18
-66 6 -156 15 -200 21 -44 5 -111 12 -150 15 -38 3 -95 8 -125 10 -229 20
-641 39 -1075 50 -204 5 -265 3 -284 -7z"/>
<path d="M3217 7598 c-3 -12 -13 -50 -22 -83 -17 -63 -36 -139 -55 -215 -6
-25 -15 -56 -19 -70 -19 -51 -22 -80 -9 -80 7 -1 31 -9 53 -20 22 -11 47 -19
55 -20 9 0 20 -4 25 -8 6 -5 44 -18 85 -31 41 -13 86 -27 100 -32 14 -5 72
-20 130 -35 58 -14 111 -31 118 -36 9 -8 12 -386 10 -1852 l-3 -1841 -50 -14
c-27 -7 -75 -18 -105 -25 -30 -7 -62 -15 -70 -18 -8 -4 -40 -11 -70 -17 -67
-14 -153 -34 -240 -56 -36 -9 -77 -19 -92 -22 -21 -4 -28 -11 -28 -27 0 -13 3
-26 7 -29 3 -4 8 -60 10 -125 2 -64 6 -148 9 -187 l5 -70 152 2 c84 2 217 7
297 13 255 17 793 21 1145 9 613 -21 760 -24 766 -19 4 3 9 100 12 216 l6 212
-42 11 c-52 14 -116 29 -187 45 -30 7 -62 15 -70 18 -8 4 -40 11 -70 17 -30 7
-84 19 -120 27 -36 8 -90 21 -120 28 -30 7 -63 16 -72 20 -17 8 -18 49 -18
663 l0 655 38 -6 c294 -45 415 -56 657 -56 200 0 347 11 480 34 140 25 301 69
390 107 63 26 124 52 154 66 55 25 210 121 276 171 98 75 244 229 308 326 57
88 137 242 137 265 0 6 4 19 9 29 23 42 56 173 71 277 28 202 33 295 21 412
-25 249 -46 390 -61 408 -4 6 -11 29 -15 52 -4 24 -11 45 -16 49 -5 3 -9 12
-9 21 0 24 -68 160 -119 238 -25 39 -86 111 -136 160 -130 129 -257 210 -425
272 -148 54 -162 58 -330 95 -148 32 -278 41 -630 44 -195 1 -359 0 -364 -4
-6 -3 -22 -7 -36 -8 -30 -3 -227 -17 -290 -21 -25 -1 -63 -5 -85 -7 -238 -27
-752 -30 -1020 -6 -131 12 -117 10 -220 26 -189 29 -287 51 -295 65 -5 6 -10
1 -13 -13z m2158 -702 c206 -33 325 -71 447 -144 65 -39 202 -168 213 -201 3
-12 10 -21 14 -21 10 0 65 -121 84 -185 24 -80 28 -113 32 -245 5 -201 -16
-303 -98 -469 -33 -69 -58 -102 -132 -175 -50 -50 -101 -99 -114 -108 -43 -31
-209 -108 -233 -108 -8 0 -18 -4 -23 -9 -10 -9 -82 -25 -185 -41 -122 -19
-438 -10 -590 17 l-45 8 -3 829 c-1 457 1 833 5 837 5 4 48 10 97 13 49 3 91
8 95 11 7 8 380 0 436 -9z"/>
<path d="M16790 7579 c-401 -27 -1485 -34 -2956 -20 -889 9 -1167 9 -1187 0
-14 -6 -30 -23 -36 -38 -5 -14 -12 -103 -16 -198 l-7 -172 29 -6 c201 -42 382
-127 564 -266 l82 -62 -8 -436 c-4 -240 -11 -485 -15 -546 -21 -285 -30 -384
-39 -430 -6 -27 -15 -84 -20 -125 -18 -126 -77 -388 -101 -445 -5 -11 -18 -54
-30 -95 -11 -41 -25 -82 -29 -90 -5 -9 -12 -31 -16 -50 -4 -19 -11 -41 -15
-50 -5 -8 -23 -55 -41 -105 -17 -49 -39 -108 -48 -130 -19 -46 -165 -341 -184
-369 -6 -11 -35 -56 -63 -100 -86 -136 -191 -269 -323 -411 -52 -55 -38 -52
-306 -80 -236 -25 -319 -37 -332 -47 -16 -13 -17 -170 -3 -318 6 -58 15 -222
20 -365 26 -683 31 -798 40 -905 5 -63 11 -166 12 -227 l3 -113 246 0 246 0
11 37 c7 21 17 58 23 83 6 25 16 70 24 100 34 134 45 178 55 225 6 28 15 59
20 70 5 11 12 40 16 65 3 25 10 50 14 55 4 6 11 33 15 60 4 28 10 55 13 60 4
6 12 33 19 60 11 47 22 93 56 230 20 79 46 182 55 220 l8 30 1729 0 1730 0 7
-40 c38 -226 65 -389 83 -510 7 -49 16 -97 19 -105 3 -8 10 -49 16 -90 6 -41
17 -115 25 -165 8 -49 22 -130 30 -180 19 -121 25 -156 31 -182 l4 -23 279 0
c215 0 278 3 279 13 1 6 6 84 11 172 6 88 15 196 21 240 9 76 19 204 40 535 5
80 14 181 19 225 6 44 15 150 21 235 6 85 15 218 21 295 14 204 16 198 -51
207 -119 16 -322 38 -455 49 -77 6 -146 16 -152 21 -16 13 -19 3568 -3 3598 6
11 26 21 52 25 24 4 86 18 138 32 52 13 113 28 135 33 37 9 72 17 235 54 91
21 102 26 95 45 -4 9 -9 109 -12 224 -3 114 -9 206 -12 205 -3 0 -62 -5 -131
-9z m-1562 -2433 c1 -1349 -1 -1792 -10 -1803 -9 -11 -56 -13 -267 -10 -297 4
-721 22 -901 36 -69 6 -260 16 -425 22 -413 16 -475 20 -475 29 0 5 4 10 8 12
8 3 53 76 102 163 58 103 176 347 220 455 12 30 29 69 36 87 8 17 14 35 14 41
0 5 7 23 15 38 8 16 15 37 15 46 0 9 4 19 9 22 5 3 12 23 16 43 4 21 10 43 15
48 4 6 11 28 15 50 4 22 10 45 15 50 4 6 13 33 20 60 24 101 37 150 43 165 3
8 11 42 17 75 6 33 18 94 26 135 85 438 151 1260 141 1748 -4 194 -2 262 6
263 7 0 128 0 269 -1 141 0 259 3 261 7 3 5 187 8 409 8 l403 0 3 -1789z"/>
<path d="M7519 7558 c0 -18 -17 -156 -23 -193 -2 -16 -8 -71 -11 -120 l-7 -90
58 -19 c33 -11 73 -25 89 -32 17 -6 80 -29 140 -49 61 -20 119 -40 130 -45 11
-4 43 -16 71 -25 36 -13 54 -25 62 -44 56 -129 63 -145 138 -309 13 -29 24
-54 24 -57 0 -2 14 -33 30 -68 17 -36 30 -68 30 -70 0 -3 15 -38 34 -79 18
-40 55 -122 81 -183 42 -97 75 -172 105 -240 5 -11 18 -42 30 -70 12 -27 28
-64 35 -81 8 -16 30 -66 48 -110 19 -43 47 -106 62 -139 14 -33 33 -76 41 -95
19 -44 27 -61 60 -135 14 -33 30 -69 34 -80 12 -31 118 -272 151 -343 16 -34
29 -64 29 -66 0 -3 14 -35 31 -73 40 -90 44 -100 69 -158 12 -27 25 -59 30
-70 5 -11 21 -47 36 -80 14 -33 37 -85 51 -115 13 -30 28 -64 33 -75 5 -11 14
-32 20 -47 l10 -28 285 0 c212 0 285 -3 285 -12 0 -15 -46 -150 -72 -208 -10
-25 -23 -54 -28 -65 -157 -371 -363 -619 -564 -676 -33 -9 -24 -14 -336 182
-69 43 -183 114 -255 159 -71 44 -152 95 -180 114 l-50 33 -75 -39 c-121 -63
-187 -121 -278 -243 -15 -21 -52 -103 -52 -117 0 -8 -6 -20 -12 -26 -9 -9 -13
-55 -13 -156 0 -138 1 -144 30 -202 76 -150 280 -290 515 -354 174 -48 443
-52 600 -11 109 30 201 63 253 92 10 5 37 20 60 32 23 12 47 25 52 29 6 4 38
28 71 53 69 51 226 210 271 276 16 24 54 80 84 124 56 82 136 211 185 300 46
85 297 585 338 675 22 47 54 117 71 155 18 39 40 88 49 110 26 60 51 116 112
253 24 54 44 101 64 147 4 11 38 92 75 180 36 88 70 169 75 180 4 11 29 72 55
135 25 63 50 124 55 135 5 11 19 45 30 75 25 63 31 77 59 142 12 26 21 52 21
58 0 5 4 18 10 28 5 9 19 40 30 67 12 28 25 59 30 70 5 11 19 45 30 75 19 50
37 93 60 145 5 11 19 44 30 73 20 52 63 151 98 222 32 65 124 214 170 275 59
77 236 254 292 292 124 82 163 104 246 138 l91 38 17 126 c9 69 20 143 25 163
4 20 7 58 7 85 l-1 48 -50 -1 c-27 -1 -126 -5 -220 -9 -146 -6 -922 -10 -1070
-5 -85 3 -407 20 -465 25 l-56 4 -13 -182 c-7 -100 -15 -193 -17 -207 -5 -23
-1 -26 43 -39 79 -21 186 -52 213 -60 34 -11 120 -36 210 -61 94 -27 120 -37
120 -49 0 -5 -14 -47 -31 -93 -17 -45 -51 -139 -76 -208 -42 -117 -64 -176
-83 -225 -4 -11 -25 -67 -45 -125 -21 -58 -44 -119 -51 -137 -8 -17 -14 -36
-14 -42 0 -6 -4 -19 -9 -29 -5 -9 -39 -100 -76 -202 -37 -102 -74 -199 -81
-217 -8 -17 -14 -38 -14 -46 0 -9 -4 -18 -9 -22 -5 -3 -12 -19 -16 -36 -4 -17
-13 -42 -21 -57 -8 -15 -14 -35 -14 -44 0 -9 -4 -20 -10 -23 -5 -3 -10 -14
-10 -23 0 -9 -7 -30 -15 -46 -8 -15 -15 -33 -15 -38 0 -6 -6 -24 -14 -41 -7
-18 -20 -50 -29 -72 -8 -22 -22 -58 -30 -80 -9 -22 -32 -83 -52 -135 -20 -52
-42 -111 -49 -130 -22 -57 -41 -45 -44 30 -1 36 -6 74 -12 85 -11 24 -40 94
-64 155 -23 56 -30 73 -56 135 -12 28 -28 66 -36 85 -8 19 -19 43 -24 52 -6
10 -10 23 -10 28 0 10 -14 45 -50 125 -5 11 -25 61 -45 110 -20 50 -42 104
-49 120 -8 17 -22 53 -31 80 -10 28 -21 55 -25 60 -4 6 -15 33 -25 60 -10 28
-26 68 -35 90 -10 22 -43 105 -74 185 -32 80 -61 154 -66 165 -5 11 -26 63
-45 115 -20 52 -43 109 -51 127 -8 17 -14 38 -14 46 0 9 -4 19 -10 22 -5 3
-10 13 -10 22 0 8 -6 29 -14 46 -7 18 -24 61 -36 97 -12 36 -26 74 -30 85 -20
48 -80 237 -80 253 0 10 -4 22 -9 28 -10 10 -31 132 -38 217 l-5 58 -61 -5
c-34 -3 -87 -8 -117 -11 -231 -23 -867 -23 -1150 1 -180 15 -250 15 -251 2z"/>
<path d="M17610 7509 c0 -31 -4 -78 -9 -106 -5 -27 -11 -91 -12 -143 l-2 -95
44 -13 c24 -8 53 -17 64 -22 11 -4 52 -17 90 -28 129 -39 240 -73 280 -87 22
-7 66 -21 98 -30 42 -13 59 -23 62 -39 3 -12 4 -840 3 -1840 -3 -1605 -5
-1820 -18 -1827 -8 -4 -49 -18 -90 -29 -41 -12 -84 -25 -95 -30 -11 -4 -74
-25 -140 -45 -323 -100 -310 -95 -310 -116 0 -8 4 -96 9 -196 l9 -183 1167 0
1168 0 6 138 c4 75 12 172 18 215 7 49 7 82 1 88 -5 5 -40 16 -79 25 -38 9
-96 23 -129 31 -33 8 -85 21 -115 29 -87 21 -171 42 -220 53 -25 6 -62 16 -83
23 l-37 11 2 826 3 826 994 3 c789 2 996 0 1003 -10 12 -20 10 -1625 -2 -1649
-6 -10 -17 -19 -24 -19 -13 0 -136 -35 -171 -50 -11 -4 -54 -18 -95 -30 -41
-12 -129 -40 -194 -61 -66 -22 -126 -39 -134 -39 -11 0 -13 -10 -9 -42 3 -24
12 -115 21 -203 8 -88 15 -161 16 -162 0 -2 523 -3 1163 -3 l1162 0 1 28 c0
15 4 116 9 224 l8 197 -24 5 c-25 5 -88 19 -179 40 -30 7 -62 15 -70 19 -8 3
-37 11 -65 16 -27 5 -79 17 -115 26 -36 9 -85 20 -110 25 -25 5 -62 15 -83 21
l-37 12 2 1840 3 1840 45 12 c25 7 81 20 125 30 44 10 91 21 105 25 14 5 70
18 125 30 55 12 110 25 121 30 12 5 43 12 70 15 91 14 88 7 79 169 -5 77 -9
169 -10 203 -1 35 -4 65 -7 68 -3 3 -522 5 -1154 5 l-1149 0 -3 -92 c-2 -51
-7 -117 -12 -147 -14 -80 -13 -171 3 -171 12 0 224 -64 262 -80 11 -4 67 -22
125 -40 197 -60 198 -60 204 -93 3 -16 6 -337 6 -713 0 -607 -2 -684 -16 -698
-14 -14 -117 -16 -988 -16 -762 0 -976 3 -989 13 -16 11 -17 64 -15 731 l3
720 195 48 c180 45 224 56 380 93 90 21 93 23 86 64 -3 20 -10 110 -16 201 -6
91 -12 168 -13 173 -1 4 -523 8 -1160 10 l-1157 2 0 -56z"/>
</g>
</svg>
