<?xml version="1.0" standalone="no"?>
<!DOCTYPE svg PUBLIC "-//W3C//DTD SVG 20010904//EN"
 "http://www.w3.org/TR/2001/REC-SVG-20010904/DTD/svg10.dtd">
<svg version="1.0" xmlns="http://www.w3.org/2000/svg"
 width="1143.000000pt" height="1143.000000pt" viewBox="0 0 1143.000000 1143.000000"
 preserveAspectRatio="xMidYMid meet">

<g transform="translate(0.000000,1143.000000) scale(0.100000,-0.100000)"
fill="#000000" stroke="none">
<path d="M5420 11419 c-262 -30 -585 -125 -818 -243 -398 -200 -1146 -727
-1709 -1204 -455 -386 -992 -921 -1403 -1397 -462 -537 -1035 -1347 -1234
-1742 -124 -249 -215 -558 -245 -835 -14 -125 -14 -441 0 -566 37 -348 152
-687 340 -1005 350 -593 875 -1291 1414 -1882 169 -186 652 -665 840 -834 601
-541 1309 -1066 1872 -1389 284 -162 589 -264 923 -308 181 -23 566 -15 739
15 260 47 504 129 727 245 145 76 475 283 715 449 599 415 1090 823 1623 1347
703 693 1269 1390 1763 2175 258 408 366 670 435 1052 20 114 23 159 23 418 0
259 -3 304 -23 418 -62 345 -165 610 -359 930 -757 1248 -1864 2457 -3088
3374 -396 296 -886 618 -1122 737 -249 124 -558 215 -835 245 -112 13 -468 12
-578 0z m1350 -2946 l0 -918 -922 -922 -923 -923 923 -923 922 -922 0 -912 c0
-501 -4 -914 -8 -917 -5 -3 -836 823 -1848 1835 l-1839 1839 1840 1840 c1012
1012 1843 1840 1847 1840 5 0 8 -413 8 -917z"/>
</g>
</svg>
