<svg width="256" height="256" viewBox="0 0 256 256" fill="none" xmlns="http://www.w3.org/2000/svg">
<circle cx="128" cy="128" r="128" fill="white"/>
<path fill-rule="evenodd" clip-rule="evenodd" d="M120.689 119.557V114.167C120.689 113.263 119.949 112.523 119.044 112.523H110.488C109.737 112.523 108.986 113.057 108.861 113.936L108.861 113.933C108.85 114.009 108.844 114.696 108.844 114.775V119.557C108.844 120.462 109.584 121.203 110.488 121.203H114.766H119.044C119.949 121.203 120.689 120.462 120.689 119.557ZM119.841 124.575H118.502H116.401H114.766H114.642H109.691C107.383 124.575 104.672 122.696 104.672 120.219V113.506C104.672 111.03 107.383 109.151 109.691 109.151H110.74H112.331H113.53H115.684H119.841C122.149 109.151 124.86 111.03 124.86 113.506V120.219C124.86 122.695 122.147 124.575 119.841 124.575ZM86.7952 112.559C86.7109 112.576 86.6282 112.601 86.5499 112.631C86.6282 112.601 86.7109 112.576 86.7952 112.559ZM87.02 112.527C86.9566 112.531 86.8939 112.54 86.8325 112.551C86.8939 112.539 86.9566 112.531 87.02 112.527ZM95.7136 112.523L95.6924 112.523H87.135V112.523H95.6924H95.7136ZM97.3353 119.614L97.3359 119.052V114.167C97.3359 113.279 96.6227 112.549 95.7409 112.524H95.6924H87.1364C86.2324 112.524 85.4917 113.263 85.4917 114.167V119.557C85.4917 120.462 86.2324 121.203 87.1364 121.203H95.6924C96.5779 121.203 97.3054 120.493 97.3353 119.614ZM96.489 124.575H93.0482H93.0442H92.9704H92.8975H92.8244H92.751H92.6775H92.6045H92.5306H92.4577H92.3845H92.3112H92.2377H92.1647H92.0912H92.0179H91.9445H91.871H91.798H86.3397C86.0848 124.575 85.8291 124.552 85.5762 124.51V132.505C85.5762 134.594 83.8831 136.286 81.7956 136.286H81.3205V113.506C81.3205 111.03 84.031 109.151 86.3397 109.151H87.0023H90.1775H90.7964H96.489C98.7957 109.151 101.509 111.03 101.509 113.506V120.219C101.509 122.695 98.7953 124.575 96.489 124.575ZM74.0765 119.557V114.167C74.0765 113.263 73.3364 112.523 72.432 112.523H63.8748C63.1241 112.523 62.3728 113.057 62.2477 113.936L62.2483 113.933C62.2373 114.009 62.2313 114.696 62.2313 114.775V119.557C62.2313 120.462 62.9714 121.203 63.8748 121.203H68.1528H72.4316C73.3364 121.203 74.0765 120.462 74.0765 119.557ZM73.2278 124.575H71.8896H69.7877H68.1528H68.0289H63.0779C60.7704 124.575 58.0589 122.696 58.0589 120.219V113.506C58.0589 111.03 60.7704 109.151 63.0779 109.151H64.1271H65.718H66.9173H69.0715H73.2278C75.5355 109.151 78.2483 111.03 78.2483 113.506V120.219C78.2483 122.695 75.5345 124.575 73.2278 124.575ZM132.098 100V118.628C132.098 120.044 133.259 121.203 134.675 121.203H140.283V122.078V123.7V124.575H136.705H132.862C130.556 124.575 127.843 122.696 127.843 120.219V103.782C127.843 101.693 129.537 100 131.624 100H132.098ZM143.767 112.457C143.767 110.551 145.648 109.151 147.548 109.151H148.022V124.579H143.767V112.457ZM171.074 112.523H157.321C155.285 112.523 155.294 115.192 157.321 115.192C159.138 115.192 160.872 115.16 162.678 115.16C162.814 115.16 162.949 115.164 163.086 115.172H166.52C168.829 115.172 171.54 117.049 171.54 119.527V120.219C171.54 122.696 168.829 124.575 166.52 124.575H165.767H162.68V124.574H162.317H151.506V121.203H165.724C167.844 121.203 167.787 118.533 165.721 118.533C163.918 118.533 162.138 118.565 160.365 118.565C160.237 118.565 160.107 118.561 159.979 118.554H156.524C154.215 118.554 151.506 116.676 151.506 114.199V113.506C151.506 111.029 154.215 109.151 156.524 109.151H160.365H171.074V112.523ZM50.6254 111.832C50.6254 109.924 51.9383 109.151 53.8367 109.151L56.6273 109.159C55.5641 109.281 54.8656 109.565 54.8807 112.16V122.234C54.8807 123.19 54.1826 124.579 53.2259 124.579H49.3753H49.3765H49.3753C48.4502 124.598 47.7015 123.738 47.0656 123.112L36.2043 112.408V122.234C36.2043 123.19 35.5044 124.579 34.5488 124.579H30.6984H30.6998H30.6984C29.7734 124.598 29.0235 123.738 28.3893 123.112L17.5824 112.461V112.461C17.5802 112.566 17.5794 112.674 17.5802 112.786V124.579H13.3271V112.457C13.3271 110.551 14.639 109.151 16.5375 109.151L19.3257 109.159C19.5854 109.159 19.8893 109.229 20.4118 109.741L31.9487 121.018V111.832C31.9487 109.924 33.2642 109.151 35.16 109.151L37.9492 109.159L37.9454 109.16L37.9894 109.159C38.2533 109.157 38.557 109.221 39.0895 109.741L50.6254 121.017V111.832ZM6 112.457C6 110.551 7.88317 109.151 9.78299 109.151H10.2567V124.579H6V112.457ZM122.516 131.171C122.516 129.264 124.398 127.865 126.298 127.865H126.771V143.293H122.516V131.171ZM77.4791 127.945C75.404 128.328 73.3081 130.042 73.3081 132.22V138.933C73.3081 141.41 76.0196 143.289 78.3279 143.289H83.403H85.0377H88.478C90.7843 143.289 93.4975 141.409 93.4975 138.933V132.881V127.945C91.4224 128.327 89.3249 130.042 89.3249 132.22C89.3249 134.237 89.3241 136.254 89.3241 138.271C89.3241 139.176 88.5856 139.917 87.6798 139.917H83.403H79.1262C78.2197 139.917 77.4791 139.176 77.4791 138.271V137.048V132.881V127.945ZM211.148 131.171C211.148 129.264 213.03 127.865 214.93 127.865H215.403V143.293H211.148V131.171ZM250.479 155H250.004C247.917 155 246.223 153.307 246.223 151.22V143.224V143.223C245.966 143.266 245.711 143.289 245.459 143.289H238.751H238.751H235.31C233.004 143.289 230.29 141.409 230.29 138.933V132.22C230.29 130.042 232.388 128.327 234.463 127.945V132.881V136.308V138.271V138.313C234.486 139.199 235.217 139.917 236.107 139.917H244.663C245.441 139.917 246.099 139.368 246.267 138.637V138.634C246.294 138.517 246.307 138.396 246.307 138.271V136.308V134.418V132.22C246.307 130.042 248.403 128.327 250.478 127.945V132.881V138.377H250.479V138.933L250.478 138.947L250.479 155ZM174.812 131.166C174.812 129.26 176.693 127.86 178.593 127.86H179.066H185.379V127.865H186.711V131.237H185.379H181.642C180.227 131.237 179.066 132.397 179.066 133.813V143.289H174.812V131.166ZM96.5683 131.171C96.5683 129.264 97.8792 127.865 99.7784 127.865L102.566 127.873C102.826 127.873 103.13 127.942 103.653 128.455L115.19 139.732V130.545C115.19 128.638 116.506 127.865 118.401 127.865L121.19 127.873C120.13 127.994 119.43 128.278 119.445 130.874V140.948C119.445 141.904 118.745 143.293 117.789 143.293H114.891H113.94C113.014 143.311 112.265 142.452 111.63 141.826L100.824 131.175C100.821 131.28 100.82 131.388 100.821 131.5V143.293H96.5683V131.171ZM151.544 127.865C149.675 127.872 147.1 127.615 145.753 129.836L139.527 139.288L133.302 129.835C132.044 127.656 129.454 127.865 127.511 127.865L135.995 140.917C136.852 142.234 137.833 143.142 139.063 143.27C140.565 143.426 141.925 142.662 143.06 140.917C145.673 136.896 148.698 132.243 151.544 127.865ZM229.043 140.792V142.414V143.289H227.335H223.492C221.186 143.289 218.474 141.41 218.474 138.933V134.406V132.22V132.209V122.496C218.474 120.407 220.168 118.714 222.255 118.714H222.73V127.93C222.986 127.888 223.241 127.865 223.492 127.865H227.335H227.866V131.237H225.305H222.73V133.781V133.797V135.281V137.341C222.73 138.758 223.89 139.917 225.305 139.917H229.043V140.792ZM171.493 139.917H157.276C155.243 139.917 155.243 137.247 157.277 137.247C159.081 137.247 160.86 137.279 162.633 137.279C162.762 137.279 162.891 137.275 163.021 137.268H166.475C168.783 137.268 171.493 135.39 171.493 132.913V132.22C171.493 129.743 168.783 127.865 166.475 127.865H163.234H162.635H159.718H156.477C154.169 127.865 151.459 129.743 151.459 132.22V132.567V138.24V138.933C151.459 141.41 154.171 143.289 156.48 143.289C161.484 143.289 166.488 143.288 171.493 143.288V139.917ZM156.48 133.886L165.678 133.906C167.706 133.906 167.714 131.237 165.678 131.237H163.234H159.718H157.274C156.477 131.237 155.808 131.811 155.659 132.567H155.648V133.963C155.927 133.913 156.206 133.886 156.48 133.886ZM207.611 131.237H193.859C191.823 131.237 191.831 133.906 193.859 133.906C195.676 133.906 197.409 133.874 199.215 133.874C199.351 133.874 199.488 133.878 199.623 133.886H203.057C205.366 133.886 208.077 135.763 208.077 138.24V138.933C208.077 141.41 205.366 143.289 203.057 143.289H202.305H199.217V143.288H198.855H188.044V139.917H202.261C204.381 139.917 204.325 137.247 202.259 137.247C200.455 137.247 198.677 137.279 196.903 137.279C196.774 137.279 196.645 137.275 196.516 137.268H193.062C190.753 137.268 188.044 135.39 188.044 132.913V132.22C188.044 129.743 190.753 127.865 193.062 127.865H196.902H207.611V131.237Z" fill="#80BC00"/>
</svg>
